<?xml version="1.0" encoding="UTF-8"?>
<svg fill="#FFFFFF" width="100pt" height="100pt" version="1.1" viewBox="0 0 100 100" xmlns="http://www.w3.org/2000/svg">
 <path d="m71.605 37.754c-2.2031-2.9844-4.2852-5.8086-3.1602-11.742 0.12109-0.64844-0.19531-1.3086-0.78516-1.6094-0.58984-0.30469-1.3086-0.1875-1.7695 0.28906-9.8906 10.23-4.918 15.82-0.92578 20.316 2.7695 3.1133 5.1562 5.8008 3.9648 9.9297-0.21094 0.72656 0.15234 1.4961 0.85156 1.7969 0.19141 0.082031 0.39453 0.12109 0.58984 0.12109 0.51953 0 1.0195-0.26953 1.2969-0.74219 5.9492-10.207 2.8945-14.352-0.0625-18.359zm-0.050781 11.461c-0.94531-2.3828-2.707-4.3594-4.3438-6.2031-3.3789-3.8008-6.1523-6.9258-2.0352-12.82 0.30078 4.3086 2.3164 7.0352 4.0195 9.3438 2.0312 2.7578 3.7422 5.082 2.3594 9.6797zm-15.387 1.8398c-6.0234-3.5117-12.121-6.1367-17.367-7.5078-0.11328-0.046875-0.23047-0.074219-0.35156-0.089844-0.35547-0.089843-0.72266-0.19141-1.0703-0.26953-6.1758-1.3867-10.27-0.69922-11.836 1.9883-1.5664 2.6875-0.14453 6.5898 4.1094 11.273 3.8164 4.2031 9.5391 8.6328 16.113 12.461 5.207 3.0273 9.9062 5.0391 14.668 6.5195 0 0 1.0703 0.33984 1.6641 0.33984 2.4961 0 5.2891-2.0234 7.1133-5.1602 2.1953-3.7773 2.2227-7.8281 0.1875-9.7461-3.6094-3.3359-8.1562-6.8555-13.23-9.8086zm-22.879 4.8555c-0.49609-0.49219-0.97266-0.98438-1.4141-1.4766-3.7109-4.0859-4.3359-6.7266-3.7383-7.7461 0.56641-0.97656 2.9805-1.707 7.8906-0.71875-1.1836 2.4141-2.4609 5.8867-2.7383 9.9414zm9.1016 7.332c-2.2305-1.5078-4.2852-3.0625-6.1289-4.625-0.28516-4.9922 1.3867-9.3008 2.75-11.906 1.1367 0.32422 2.3164 0.71875 3.5234 1.1562-0.14453 0.19922-0.27734 0.40625-0.38281 0.63672-0.73438 1.5625-0.38672 3.4375 0.98047 5.2773 0.14453 0.19531 0.30078 0.39062 0.46484 0.57812-0.78906 2.7266-1.2734 5.7656-1.207 8.8828zm2.4766-13.465c0.089843-0.1875 0.24609-0.34766 0.48828-0.48438 0.10156-0.058594 0.1875-0.12891 0.26953-0.20312 2.9375 1.25 5.9883 2.7812 9.0312 4.5547 0.70312 0.41016 1.3906 0.83984 2.0703 1.2695-0.003906 0.027344-0.011718 0.054688-0.015624 0.082032-0.007813 0.11719-0.035157 0.22656-0.082032 0.32422-0.23438 0.49609-1.0312 0.82813-2.1367 0.88672-1.4492 0.074219-3.25-0.33984-4.9375-1.1328-1.6875-0.79688-3.1523-1.9219-4.0195-3.0859-0.65234-0.88281-0.90234-1.7109-0.66797-2.2109zm6.6172 18.812c-1.3672-0.6875-2.7617-1.4375-4.2031-2.2734-0.60156-0.35156-1.1875-0.71094-1.7695-1.0664-0.33984-2.9766-0.03125-5.9688 0.61719-8.6836 0.66797 0.44922 1.3867 0.86328 2.1523 1.2266 1.4688 0.69141 2.9844 1.1367 4.4258 1.3203-0.84766 2.8242-1.3359 6.0977-1.2227 9.4766zm8.0117-3.6484c-1.2852 2.2148-1.8203 4.5156-1.6406 6.4336-1.0898-0.40625-2.1836-0.84766-3.2852-1.3359-0.38672-3.9688 0.23828-7.8867 1.3125-11 1.6445-0.33594 2.8477-1.1641 3.4492-2.4102 1.7461 1.2109 3.3984 2.4609 4.9297 3.7227-1.7773 0.80859-3.5039 2.4219-4.7656 4.5898zm7.1289 4.1602c-1.668 2.8672-4.0938 4.1055-5.0938 3.5312-1.0508-0.60937-1.0352-3.4414 0.55859-6.1758 1.4023-2.4102 3.3359-3.6719 4.5195-3.6719 0.22656 0 0.41016 0.046875 0.57031 0.14062 1.0508 0.60938 1.0352 3.4375-0.55469 6.1758z"/>
</svg>
