<?xml version="1.0" encoding="UTF-8"?>
<svg fill="#FFFFFF" width="100pt" height="100pt" version="1.1" viewBox="0 0 100 100" xmlns="http://www.w3.org/2000/svg">
 <g>
  <path d="m66 51.871c-0.75781 0.007812-1.4023-0.55078-1.5039-1.3008-0.10156-0.75 0.37109-1.457 1.1055-1.6484 6.5391-1.8008 12.621-4.4414 16.238-7 0.32422-0.23438 0.72656-0.32812 1.1172-0.26172 0.39453 0.0625 0.74609 0.28125 0.97656 0.60547 0.48438 0.67188 0.33203 1.6094-0.34375 2.0938-4 2.8398-10.219 5.5781-17.191 7.5-0.12891 0.023437-0.26563 0.023437-0.39844 0.011719z"/>
  <path d="m87.68 40.488c-0.55859 0.003907-1.0742-0.30859-1.332-0.80469-0.25781-0.49609-0.21875-1.0938 0.10156-1.5547 0.54297-0.71484 0.85156-1.582 0.87891-2.4805 0-7.2383-19.66-12.289-37.301-12.289-10.852 0-21.199 1.6406-28.379 4.5-0.76953 0.30859-1.6406-0.070313-1.9492-0.83984-0.30469-0.76953 0.070312-1.6445 0.83984-1.9492 7.5312-3 18.281-4.7109 29.488-4.7109 23 0 40.301 6.5703 40.301 15.289-0.023437 1.5156-0.51953 2.9844-1.418 4.2031-0.28125 0.39844-0.74219 0.64063-1.2305 0.63672z"/>
  <path d="m50 79.641c-18.148 0-33.672-4.3086-38.609-10.719-0.17188-0.21094-17.461-22.449-0.28125-38 0.62109-0.46875 1.4961-0.38281 2.0156 0.19531 0.51953 0.57422 0.51172 1.4531-0.015625 2.0234-6.25 5.6797-8.1094 13.059-5.4492 21.859 1.3555 4.3125 3.4258 8.3711 6.1211 12 4.2773 5.6211 19.52 9.6406 36.219 9.6406 16 0 30.621-3.6406 35.641-8.8594 0.41016-0.44922 0.78906-0.92578 1.1289-1.4297 2-2.8711 8.3984-13 6.2695-22.91-1.1992-5.5703-5-10.262-11.141-13.93-0.34766-0.19922-0.60156-0.53125-0.70703-0.92188-0.10156-0.38672-0.042968-0.80078 0.16016-1.1484 0.20703-0.34766 0.54297-0.59375 0.93359-0.69141s0.80078-0.03125 1.1445 0.17969c6.9609 4.0703 11.18 9.4414 12.57 15.871 2.3906 11.09-4.5586 22.141-6.75 25.262v-0.003906c-0.42578 0.63281-0.90234 1.2344-1.4219 1.793-5.6289 5.8477-20.828 9.7891-37.828 9.7891z"/>
  <path d="m50.578 45.66c-7.4102 0-15.289-2.5586-15.289-7.3203 0-4.7617 7.8828-7.3398 15.289-7.3398 2.1289-0.007812 4.25 0.19922 6.332 0.62109 0.8125 0.16406 1.3359 0.95703 1.168 1.7695-0.16406 0.8125-0.95703 1.3359-1.7695 1.168-1.8867-0.37891-3.8047-0.56641-5.7305-0.55859-7.5 0-12.289 2.5586-12.289 4.3203 0 1.7617 4.7891 4.3203 12.289 4.3203s12.289-2.5586 12.289-4.3203h0.003906c0-0.82812 0.67188-1.5 1.5-1.5s1.5 0.67188 1.5 1.5c0 4.7695-7.8711 7.3398-15.293 7.3398z"/>
  <path d="m62 43c-0.28125 0-0.55469-0.082031-0.78906-0.23047-2.3398-1.4609-6.3203-2.3398-10.641-2.3398-4.1016 0-8 0.80859-10.34 2.1602-0.69922 0.29297-1.5078 0.015625-1.8828-0.64453-0.375-0.66016-0.19922-1.4922 0.41406-1.9453 2.8516-1.6211 7.1602-2.5508 11.82-2.5508 4.8516 0 9.4219 1 12.219 2.7891 0.55469 0.35938 0.8125 1.043 0.625 1.6797-0.18359 0.63672-0.76172 1.0742-1.4258 1.082z"/>
  <path d="m12.32 40.488c-0.48828 0.003907-0.94922-0.23828-1.2305-0.63672-0.89844-1.2188-1.3945-2.6875-1.418-4.2031 0-8.707 17.328-15.289 40.328-15.289 11.219 0 22 1.7188 29.488 4.7109 0.77344 0.30469 1.1484 1.1797 0.83984 1.9492-0.30469 0.76953-1.1758 1.1484-1.9492 0.83984-7.207-2.8594-17.559-4.5-28.379-4.5-17.641 0-37.301 5-37.301 12.289 0.03125 0.89844 0.33594 1.7656 0.87891 2.4805 0.32422 0.46094 0.36328 1.0586 0.10156 1.5547-0.25781 0.49609-0.76953 0.80859-1.3281 0.80469z"/>
  <path d="m50 79.641c-17 0-32.172-3.9297-37.801-9.7812-0.51953-0.55859-0.99609-1.1562-1.418-1.7891-2.2227-3.1289-9.1719-14.18-6.7812-25.27 1.3789-6.4297 5.6094-11.801 12.551-15.891 0.33984-0.21094 0.75391-0.27734 1.1445-0.17969 0.39063 0.097656 0.72656 0.34375 0.93359 0.69141 0.20312 0.34766 0.26172 0.76172 0.16016 1.1484-0.10547 0.39063-0.35937 0.71875-0.71094 0.91797-6.1914 3.6719-9.9414 8.3594-11.148 13.941-2.1289 9.8984 4.2617 20 6.2695 22.91 0.33984 0.50391 0.71875 0.98438 1.1289 1.4297 5.0312 5.2305 19.672 8.8711 35.672 8.8711 16.73 0 32-4 36.238-9.5508 0.66016-0.83984 15.73-20.289 0.64062-34-0.33594-0.25391-0.55078-0.63672-0.58984-1.0547-0.042968-0.41797 0.09375-0.83594 0.37891-1.1484 0.28125-0.3125 0.67969-0.49219 1.1016-0.49609s0.82422 0.17188 1.1094 0.48047c17.18 15.57-0.10938 37.809-0.28906 38-4.9492 6.457-20.461 10.77-38.59 10.77z"/>
  <path d="m50.148 70.648c-2.0938 0.019531-4.1055-0.82031-5.5703-2.3203-1.3945-1.4141-2.1445-3.3398-2.0781-5.3281-0.015625-2.4844-1.9766-4.5195-4.4609-4.625-2.4805-0.10547-4.6094 1.75-4.8398 4.2266-0.125 1.9648-1.0469 3.7969-2.5508 5.0703-1.6016 1.3438-3.6719 1.9961-5.7578 1.8086-2.082-0.1875-4.0078-1.1992-5.3398-2.8086-1.2539-1.5234-1.832-3.4922-1.6016-5.4531 0.24219-2.3633-1.3281-4.5312-3.6484-5.043-2.3203-0.51172-4.6562 0.79688-5.4297 3.043-0.27734 0.78516-1.1367 1.1992-1.9219 0.92188-0.78516-0.27734-1.1953-1.1367-0.91797-1.9219 1.2734-3.6719 5.0938-5.8125 8.8906-4.9805 3.7969 0.82812 6.3789 4.3633 6.0078 8.2305-0.13281 1.1602 0.20703 2.3203 0.94922 3.2227 1.7148 2.0508 4.7656 2.3281 6.8203 0.61719 0.89062-0.75 1.4375-1.8359 1.5117-3 0.35937-4.0781 3.8711-7.1523 7.9648-6.9727 4.0938 0.17969 7.3203 3.5469 7.3242 7.6445-0.03125 1.1641 0.41406 2.2891 1.2305 3.1211 0.89844 0.91797 2.1328 1.4297 3.418 1.418 1.2812 0.011719 2.5117-0.49609 3.4102-1.4102 0.82422-0.82812 1.2695-1.9531 1.2422-3.1211-0.042969-4.125 3.1875-7.543 7.3086-7.7383h0.33984c3.9766 0.003906 7.2891 3.043 7.6406 7 0.074218 1.1641 0.61719 2.2461 1.5117 3 2.0547 1.7148 5.1133 1.4375 6.8281-0.62109 0.74219-0.89453 1.0859-2.0547 0.94922-3.207-0.35156-4.0703 2.5703-7.6914 6.6211-8.2031 3.3477-0.43359 6.5898 1.3633 8 4.4297 0.28125 0.74219-0.0625 1.5742-0.78516 1.8984-0.72266 0.32812-1.5742 0.035156-1.9453-0.66797-0.94531-2.0781-3.2539-3.1719-5.4609-2.5859-2.207 0.58984-3.668 2.6836-3.457 4.957 0.22656 1.957-0.35156 3.9219-1.6016 5.4414-1.3359 1.6133-3.2617 2.6289-5.3477 2.8164-2.0859 0.1875-4.1602-0.46875-5.7617-1.8164-1.5078-1.2773-2.4258-3.1133-2.5508-5.082-0.23047-2.4766-2.3672-4.3398-4.8555-4.2227-2.4883 0.11328-4.4453 2.1641-4.4453 4.6523 0.050782 1.9727-0.70312 3.8789-2.0898 5.2812-1.457 1.5-3.4609 2.3398-5.5508 2.3281z"/>
 </g>
</svg>
