<?xml version="1.0" encoding="UTF-8"?>
<svg fill="#ffffff" width="100pt" height="100pt" version="1.1" viewBox="0 0 100 100" xmlns="http://www.w3.org/2000/svg">
 <path d="m50 100c-27.613 0-50-22.387-50-50s22.387-50 50-50 50 22.387 50 50-22.387 50-50 50zm0-5.8828c24.367 0 44.117-19.75 44.117-44.117s-19.75-44.117-44.117-44.117-44.117 19.75-44.117 44.117 19.75 44.117 44.117 44.117zm7.3516-76.469c0-1.625 1.3164-2.9414 2.9414-2.9414s2.9414 1.3164 2.9414 2.9414v5.8828c0 1.6211-1.3164 2.9375-2.9414 2.9375s-2.9414-1.3164-2.9414-2.9375zm-36.762 42.645c0-1.625 1.3164-2.9414 2.9414-2.9414 1.6211 0 2.9375 1.3164 2.9375 2.9414v5.8828c0 1.625-1.3164 2.9414-2.9375 2.9414-1.625 0-2.9414-1.3164-2.9414-2.9414zm53.801-28.801c-1.1484-1.1484-1.1484-3.0117 0-4.1602 1.1484-1.1484 3.0117-1.1484 4.1602 0l4.4102 4.4102c1.1484 1.1484 1.1484 3.0117 0 4.1602-1.1484 1.1484-3.0078 1.1484-4.1602 0zm-17.648 44.371c1.1484-1.1523 3.0117-1.1523 4.1602 0 1.1484 1.1484 1.1484 3.0078 0 4.1562l-4.4102 4.4141c-1.1484 1.1484-3.0117 1.1484-4.1602 0-1.1484-1.1484-1.1484-3.0117 0-4.1602zm-13.234-63.238c1.1484-1.1484 3.0117-1.1484 4.1602 0 1.1484 1.1484 1.1484 3.0117 0 4.1602l-4.4102 4.4141c-1.1484 1.1484-3.0117 1.1484-4.1602 0-1.1484-1.1523-1.1484-3.0117 0-4.1602zm-5.2734 63.844c1.625 0 2.9414 1.3203 2.9414 2.9414 0 1.625-1.3164 2.9414-2.9414 2.9414h-5.8828c-1.6211 0-2.9414-1.3164-2.9414-2.9414 0-1.6211 1.3203-2.9414 2.9414-2.9414zm41.176-8.8203c1.625 0 2.9414 1.3164 2.9414 2.9414 0 1.6211-1.3164 2.9414-2.9414 2.9414h-5.8789c-1.625 0-2.9414-1.3203-2.9414-2.9414 0-1.625 1.3164-2.9414 2.9414-2.9414zm-0.85938-12.629c-1.1484 1.1484-3.0117 1.1484-4.1602 0-1.1484-1.1484-1.1484-3.0078 0-4.1562l4.4102-4.4141c1.1523-1.1484 3.0117-1.1484 4.1602 0 1.1484 1.1484 1.1484 3.0117 0 4.1602zm-49.141-27.078c1.625 0 2.9414 1.3164 2.9414 2.9414s-1.3164 2.9414-2.9414 2.9414h-5.8789c-1.625 0-2.9414-1.3164-2.9414-2.9414s1.3164-2.9414 2.9414-2.9414zm-8.6602 16.672c1.3516 0.89844 1.7148 2.7266 0.81641 4.0781-0.90234 1.3516-2.7305 1.7148-4.082 0.81641l-4.4102-2.9414c-1.3516-0.90234-1.7148-2.7305-0.81641-4.082 0.90234-1.3516 2.7266-1.7148 4.0781-0.8125zm29.25 23.035c-9.7461 0-17.648-7.9023-17.648-17.648s7.9023-17.648 17.648-17.648 17.648 7.9023 17.648 17.648-7.9023 17.648-17.648 17.648zm0-5.8828c6.4961 0 11.766-5.2695 11.766-11.766s-5.2695-11.766-11.766-11.766-11.766 5.2695-11.766 11.766 5.2695 11.766 11.766 11.766z" fill-rule="evenodd"/>
</svg>
